<mxfile host="app.diagrams.net" modified="2021-10-19T01:14:43.423Z" agent="5.0 (Windows NT 10.0; Win64; x64) AppleWebKit/537.36 (KHTML, like Gecko) Chrome/94.0.4606.81 Safari/537.36" etag="WkeMmJ4YfY4zb9ICu1W3" version="15.5.5" type="github">
  <diagram id="blIOy_oseiCzfVL5TxHg" name="Page-1">
    <mxGraphModel dx="1038" dy="500" grid="1" gridSize="10" guides="1" tooltips="1" connect="1" arrows="1" fold="1" page="1" pageScale="1" pageWidth="827" pageHeight="1169" background="#F1FAEE" math="0" shadow="0">
      <root>
        <mxCell id="0" />
        <mxCell id="1" parent="0" />
        <mxCell id="NRn2xjVf9HI4S9_KBbvh-13" value="" style="edgeStyle=orthogonalEdgeStyle;curved=0;rounded=1;sketch=0;orthogonalLoop=1;jettySize=auto;html=1;strokeColor=#457B9D;fontColor=#1D3557;labelBackgroundColor=#F1FAEE;fontSize=14;" edge="1" parent="1" source="NRn2xjVf9HI4S9_KBbvh-8" target="NRn2xjVf9HI4S9_KBbvh-9">
          <mxGeometry relative="1" as="geometry" />
        </mxCell>
        <mxCell id="NRn2xjVf9HI4S9_KBbvh-8" value="数据清洗" style="rounded=1;whiteSpace=wrap;html=1;sketch=0;fillColor=#A8DADC;strokeColor=#457B9D;fontColor=#1D3557;fontSize=14;" vertex="1" parent="1">
          <mxGeometry x="30" y="60" width="120" height="60" as="geometry" />
        </mxCell>
        <mxCell id="NRn2xjVf9HI4S9_KBbvh-19" value="" style="edgeStyle=orthogonalEdgeStyle;curved=0;rounded=1;sketch=0;orthogonalLoop=1;jettySize=auto;html=1;strokeColor=#457B9D;fontColor=#1D3557;labelBackgroundColor=#F1FAEE;fontSize=14;" edge="1" parent="1" source="NRn2xjVf9HI4S9_KBbvh-9" target="NRn2xjVf9HI4S9_KBbvh-10">
          <mxGeometry relative="1" as="geometry" />
        </mxCell>
        <mxCell id="NRn2xjVf9HI4S9_KBbvh-9" value="旋律识别" style="rounded=1;whiteSpace=wrap;html=1;sketch=0;fillColor=#A8DADC;strokeColor=#457B9D;fontColor=#1D3557;fontSize=14;" vertex="1" parent="1">
          <mxGeometry x="180" y="60" width="120" height="60" as="geometry" />
        </mxCell>
        <mxCell id="NRn2xjVf9HI4S9_KBbvh-20" value="" style="edgeStyle=orthogonalEdgeStyle;curved=0;rounded=1;sketch=0;orthogonalLoop=1;jettySize=auto;html=1;strokeColor=#457B9D;fontColor=#1D3557;labelBackgroundColor=#F1FAEE;fontSize=14;" edge="1" parent="1" source="NRn2xjVf9HI4S9_KBbvh-10" target="NRn2xjVf9HI4S9_KBbvh-11">
          <mxGeometry relative="1" as="geometry" />
        </mxCell>
        <mxCell id="NRn2xjVf9HI4S9_KBbvh-10" value="风格分类" style="rounded=1;whiteSpace=wrap;html=1;sketch=0;fillColor=#A8DADC;strokeColor=#457B9D;fontColor=#1D3557;fontSize=14;" vertex="1" parent="1">
          <mxGeometry x="340" y="60" width="120" height="60" as="geometry" />
        </mxCell>
        <mxCell id="NRn2xjVf9HI4S9_KBbvh-16" value="" style="edgeStyle=orthogonalEdgeStyle;curved=0;rounded=1;sketch=0;orthogonalLoop=1;jettySize=auto;html=1;strokeColor=#457B9D;fontColor=#1D3557;labelBackgroundColor=#F1FAEE;fontSize=14;" edge="1" parent="1" source="NRn2xjVf9HI4S9_KBbvh-11" target="NRn2xjVf9HI4S9_KBbvh-12">
          <mxGeometry relative="1" as="geometry" />
        </mxCell>
        <mxCell id="NRn2xjVf9HI4S9_KBbvh-11" value="数据筛选" style="rounded=1;whiteSpace=wrap;html=1;sketch=0;fillColor=#A8DADC;strokeColor=#457B9D;fontColor=#1D3557;fontSize=14;" vertex="1" parent="1">
          <mxGeometry x="500" y="60" width="120" height="60" as="geometry" />
        </mxCell>
        <mxCell id="NRn2xjVf9HI4S9_KBbvh-12" value="片段分割" style="rounded=1;whiteSpace=wrap;html=1;sketch=0;fillColor=#A8DADC;strokeColor=#457B9D;fontColor=#1D3557;fontSize=14;" vertex="1" parent="1">
          <mxGeometry x="660" y="60" width="120" height="60" as="geometry" />
        </mxCell>
      </root>
    </mxGraphModel>
  </diagram>
</mxfile>
